<svg width="422" height="701" viewBox="0 0 422 701" fill="none" xmlns="http://www.w3.org/2000/svg">
    <path d="M543.171 41.2274C596.458 77.0837 633.274 135.713 670.575 195.312C707.875 255.396 745.176 316.448 741.785 376.047C738.879 435.646 695.28 493.307 648.291 536.916C601.787 580.524 552.375 609.597 501.995 653.691C452.1 697.299 402.204 755.445 339.229 777.249C276.254 799.538 200.684 785.486 135.286 750.599C69.8893 715.712 14.665 659.99 2.55438 594.576C-9.07179 529.163 21.9313 453.574 36.464 386.223C50.5123 318.871 47.6058 259.757 69.4049 211.787C91.6884 163.817 139.162 127.961 190.511 91.1354C241.375 54.3101 296.6 17.0003 359.09 4.40213C421.097 -7.71146 490.369 5.37121 543.171 41.2274Z" fill="#F5CB5C"/>
</svg>
